<svg width="38" height="34" viewBox="0 0 38 34" fill="none" xmlns="http://www.w3.org/2000/svg">
<path d="M15.4776 5.53185V3.66394C15.4776 3.21764 15.6549 2.78961 15.9705 2.47402C16.2861 2.15843 16.7141 1.98114 17.1604 1.98114H20.8458C21.2921 1.98114 21.7201 2.15843 22.0357 2.47402C22.3513 2.78961 22.5286 3.21764 22.5286 3.66394V5.53185" stroke="#222222" stroke-width="1.5" stroke-linecap="round" stroke-linejoin="round"/>
<path d="M19.0004 32.9616C26.6988 32.9616 32.9396 26.7208 32.9396 19.0224C32.9396 11.324 26.6988 5.08319 19.0004 5.08319C11.302 5.08319 5.06116 11.324 5.06116 19.0224C5.06116 26.7208 11.302 32.9616 19.0004 32.9616Z" stroke="#222222" stroke-width="1.5" stroke-linecap="round" stroke-linejoin="round"/>
<path d="M19.0002 29.68C24.8863 29.68 29.658 24.9084 29.658 19.0222C29.658 13.1361 24.8863 8.3645 19.0002 8.3645C13.1141 8.3645 8.34247 13.1361 8.34247 19.0222C8.34247 24.9084 13.1141 29.68 19.0002 29.68Z" stroke="#222222" stroke-width="1.5" stroke-linecap="round" stroke-linejoin="round"/>
<path d="M19.0002 21.5689C20.4067 21.5689 21.5469 20.4288 21.5469 19.0223C21.5469 17.6158 20.4067 16.4756 19.0002 16.4756C17.5938 16.4756 16.4536 17.6158 16.4536 19.0223C16.4536 20.4288 17.5938 21.5689 19.0002 21.5689Z" stroke="#222222" stroke-width="1.5" stroke-linecap="round" stroke-linejoin="round"/>
<path d="M19 16.4757V12.1453" stroke="#222222" stroke-width="1.5" stroke-linecap="round" stroke-linejoin="round"/>
<path d="M16.4537 19.022H12.1233" stroke="#222222" stroke-width="1.5" stroke-linecap="round" stroke-linejoin="round"/>
<path d="M7.07489 32.9673L9.68323 29.3941" stroke="#222222" stroke-width="1.5" stroke-linecap="round" stroke-linejoin="round"/>
<path d="M28.8613 9.16677L30.9256 7.09692" stroke="#222222" stroke-width="1.5" stroke-linecap="round" stroke-linejoin="round"/>
<path d="M34.5175 3.2059L34.8269 3.51528C35.6685 4.35684 36.1413 5.49825 36.1413 6.6884C36.1413 7.87855 35.6685 9.01995 34.8269 9.86152L34.2439 10.4446L27.5882 3.78896L28.1713 3.2059C29.0129 2.36433 30.1543 1.89155 31.3444 1.89155C32.5346 1.89155 33.676 2.36433 34.5175 3.2059V3.2059Z" stroke="#222222" stroke-width="1.5" stroke-linecap="round" stroke-linejoin="round"/>
<path d="M9.14474 9.17239L7.07489 7.10254" stroke="#222222" stroke-width="1.5" stroke-linecap="round" stroke-linejoin="round"/>
<path d="M3.17312 3.52646L3.47457 3.22502C4.31613 2.38345 5.45754 1.91067 6.64769 1.91067C7.83784 1.91067 8.97925 2.38345 9.82081 3.22502L10.3959 3.80015L3.74825 10.4478L3.17312 9.87271C2.33156 9.03114 1.85877 7.88974 1.85877 6.69958C1.85877 5.50943 2.33156 4.36803 3.17312 3.52646V3.52646Z" stroke="#222222" stroke-width="1.5" stroke-linecap="round" stroke-linejoin="round"/>
<path d="M30.9258 32.9673L28.3174 29.3941" stroke="#222222" stroke-width="1.5" stroke-linecap="round" stroke-linejoin="round"/>
</svg>
