<svg width="36" height="34" viewBox="0 0 36 34" fill="none" xmlns="http://www.w3.org/2000/svg">
<path d="M17.713 16.9477C16.502 16.9496 15.3057 16.6832 14.2098 16.1677C13.114 15.6523 12.146 14.9005 11.3753 13.9664L13.0111 12.6139C13.5838 13.3058 14.3022 13.8627 15.115 14.245C15.9277 14.6273 16.8148 14.8255 17.713 14.8255C18.6112 14.8255 19.4983 14.6273 20.3111 14.245C21.1238 13.8627 21.8422 13.3058 22.415 12.6139L24.0508 13.97C23.279 14.9027 22.3107 15.6532 21.2151 16.168C20.1194 16.6828 18.9236 16.949 17.713 16.9477Z" fill="black"/>
<path d="M28.1474 33.5H7.27532L7.19389 32.5263C7.15494 32.059 6.31581 20.6829 6.15294 16.8696C5.08731 16.7151 4.07006 16.323 3.1764 15.7223C2.28274 15.1216 1.53554 14.3277 0.990051 13.3994C0.444567 12.471 0.114753 11.4319 0.0250007 10.3588C-0.0647518 9.28581 0.087853 8.20634 0.47153 7.20024C0.855206 6.19414 1.46014 5.28716 2.24159 4.54637C3.02305 3.80558 3.96103 3.24993 4.98618 2.92052C6.01132 2.5911 7.09741 2.49635 8.16411 2.64326C9.23081 2.79017 10.2508 3.17499 11.1488 3.76926C11.9155 2.75367 12.9074 1.92983 14.0464 1.36254C15.1855 0.795256 16.4406 0.5 17.7131 0.5C18.9856 0.5 20.2408 0.795256 21.3798 1.36254C22.5189 1.92983 23.5108 2.75367 24.2775 3.76926C25.6873 2.84039 27.3793 2.43774 29.0564 2.63199C30.7335 2.82624 32.2886 3.60496 33.4489 4.8315C34.6091 6.05804 35.3002 7.65402 35.401 9.33934C35.5018 11.0247 35.0058 12.6916 34.0001 14.0477C32.8599 15.5802 31.159 16.5987 29.2698 16.8802C29.1069 20.6935 28.2678 32.0731 28.2288 32.5405L28.1474 33.5ZM9.21559 31.3756H26.2107C26.4585 28.3802 27.1879 17.9566 27.1879 15.8818V14.8196H28.2501C29.039 14.8228 29.8176 14.6395 30.5221 14.2844C31.2267 13.9294 31.8373 13.4127 32.3041 12.7766C32.9521 11.9063 33.2988 10.8486 33.2919 9.76356C33.2927 8.77407 33.0032 7.80609 32.4591 6.97959C31.9151 6.15309 31.1405 5.50438 30.2313 5.11388C29.3221 4.72337 28.3183 4.60822 27.3444 4.7827C26.3704 4.95718 25.469 5.41362 24.7519 6.09546L23.7322 7.05143L23.0736 5.82991C22.5514 4.86011 21.7763 4.04981 20.8306 3.48501C19.8849 2.92021 18.804 2.62198 17.7025 2.62198C16.601 2.62198 15.5201 2.92021 14.5744 3.48501C13.6287 4.04981 12.8536 4.86011 12.3314 5.82991L11.694 7.04789L10.685 6.09192C10.0857 5.52258 9.35604 5.10873 8.55984 4.88658C7.76364 4.66444 6.92514 4.64074 6.11767 4.81758C5.3102 4.99442 4.55835 5.36641 3.92789 5.90101C3.29742 6.4356 2.80754 7.11653 2.50108 7.88423C2.19462 8.65193 2.08092 9.48302 2.16993 10.3048C2.25894 11.1266 2.54794 11.9141 3.01166 12.5984C3.47538 13.2827 4.09969 13.8429 4.83 14.2301C5.5603 14.6173 6.37436 14.8197 7.20097 14.8196H8.26316V15.8818C8.25254 17.9601 8.98191 28.3802 9.21559 31.3756Z" fill="black"/>
</svg>
