<svg width="21" height="20" viewBox="0 0 21 20" fill="none" xmlns="http://www.w3.org/2000/svg">
<path d="M10.4592 2.23635C13.0529 2.23635 13.36 2.246 14.3847 2.29243C15.0007 2.29992 15.6109 2.41233 16.1887 2.62477C16.6078 2.78536 16.9883 3.03135 17.3059 3.34692C17.6235 3.66249 17.871 4.04064 18.0326 4.45703C18.2464 5.03122 18.3595 5.63758 18.3671 6.24976C18.4133 7.26793 18.4235 7.57316 18.4235 10.1505C18.4235 12.7279 18.4138 13.0332 18.3671 14.0513C18.3595 14.6635 18.2464 15.2699 18.0326 15.8441C17.871 16.2604 17.6235 16.6386 17.3059 16.9542C16.9883 17.2697 16.6078 17.5157 16.1887 17.6763C15.6109 17.8888 15.0007 18.0012 14.3847 18.0087C13.3605 18.0546 13.0533 18.0647 10.4592 18.0647C7.86499 18.0647 7.55783 18.0551 6.53367 18.0087C5.91761 18.0012 5.3074 17.8888 4.72958 17.6763C4.31055 17.5157 3.93001 17.2697 3.61244 16.9542C3.29487 16.6386 3.04732 16.2604 2.88572 15.8441C2.67193 15.2699 2.55881 14.6635 2.55127 14.0513C2.50501 13.0332 2.49483 12.7279 2.49483 10.1505C2.49483 7.57316 2.50455 7.26793 2.55127 6.24976C2.55881 5.63758 2.67193 5.03122 2.88572 4.45703C3.04732 4.04064 3.29487 3.66249 3.61244 3.34692C3.93001 3.03135 4.31055 2.78536 4.72958 2.62477C5.3074 2.41233 5.91761 2.29992 6.53367 2.29243C7.55829 2.24646 7.86545 2.23635 10.4592 2.23635ZM10.4592 0.496948C7.82243 0.496948 7.49029 0.50798 6.4541 0.554867C5.64784 0.570803 4.85013 0.722501 4.09492 1.00351C3.44706 1.24606 2.86027 1.62616 2.37549 2.1173C1.8808 2.59921 1.49796 3.18263 1.25372 3.82682C0.970929 4.57728 0.818271 5.36996 0.802234 6.17115C0.755975 7.1999 0.744873 7.52995 0.744873 10.1501C0.744873 12.7702 0.755975 13.1003 0.803159 14.1299C0.819196 14.9311 0.971855 15.7238 1.25464 16.4743C1.49861 17.1184 1.88113 17.7018 2.37549 18.1838C2.86054 18.675 3.44766 19.0551 4.09584 19.2976C4.85106 19.5786 5.64876 19.7303 6.45503 19.7462C7.49122 19.7922 7.82197 19.8041 10.4601 19.8041C13.0982 19.8041 13.429 19.7931 14.4652 19.7462C15.2714 19.7303 16.0691 19.5786 16.8243 19.2976C17.4694 19.0491 18.0553 18.6696 18.5443 18.1832C19.0334 17.6969 19.415 17.1146 19.6646 16.4733C19.9474 15.7229 20.1001 14.9302 20.1161 14.129C20.1624 13.1003 20.1735 12.7702 20.1735 10.1501C20.1735 7.52995 20.1624 7.1999 20.1152 6.17023C20.0991 5.36905 19.9465 4.57636 19.6637 3.8259C19.4197 3.1818 19.0372 2.59838 18.5428 2.11638C18.0578 1.62513 17.4707 1.24502 16.8225 1.00259C16.0673 0.721581 15.2696 0.569884 14.4633 0.553948C13.428 0.50798 13.0959 0.496948 10.4592 0.496948Z" fill="#27272A"/>
<path d="M10.4575 5.19226C9.47088 5.19226 8.5064 5.48299 7.68604 6.02769C6.86568 6.57238 6.22629 7.34658 5.84873 8.25237C5.47116 9.15816 5.37237 10.1549 5.56485 11.1165C5.75733 12.078 6.23244 12.9613 6.9301 13.6546C7.62776 14.3478 8.51663 14.82 9.4843 15.0112C10.452 15.2025 11.455 15.1043 12.3665 14.7292C13.2781 14.354 14.0572 13.7186 14.6053 12.9034C15.1535 12.0882 15.446 11.1298 15.446 10.1494C15.446 8.83467 14.9205 7.57381 13.9849 6.64417C13.0494 5.71453 11.7806 5.19226 10.4575 5.19226ZM10.4575 13.3671C9.81708 13.3671 9.19103 13.1784 8.65853 12.8248C8.12602 12.4712 7.71099 11.9687 7.4659 11.3807C7.22082 10.7928 7.1567 10.1458 7.28164 9.52163C7.40658 8.89746 7.71498 8.32412 8.16784 7.87411C8.62069 7.4241 9.19766 7.11765 9.82579 6.99349C10.4539 6.86933 11.105 6.93306 11.6967 7.1766C12.2884 7.42014 12.7941 7.83256 13.1499 8.36171C13.5057 8.89086 13.6956 9.51297 13.6956 10.1494C13.6956 11.0028 13.3545 11.8212 12.7472 12.4246C12.1399 13.0281 11.3163 13.3671 10.4575 13.3671Z" fill="#27272A"/>
<path d="M15.6445 6.1555C16.2883 6.1555 16.8102 5.63688 16.8102 4.99712C16.8102 4.35737 16.2883 3.83875 15.6445 3.83875C15.0007 3.83875 14.4788 4.35737 14.4788 4.99712C14.4788 5.63688 15.0007 6.1555 15.6445 6.1555Z" fill="#27272A"/>
</svg>
