<svg width="100" height="24" viewBox="0 0 100 24" fill="none" xmlns="http://www.w3.org/2000/svg">
<path d="M4.7094 11.9137H14.3848V15.6571H4.7094V11.9137ZM5.05495 23H0.390043V2.84301H15.623V6.58645H5.05495V23ZM25.4423 23.2304C23.7913 23.2304 22.3228 22.8848 21.0366 22.1937C19.7695 21.5026 18.7617 20.562 18.013 19.3717C17.2835 18.1623 16.9188 16.7897 16.9188 15.254C16.9188 13.699 17.2835 12.3264 18.013 11.1362C18.7617 9.92675 19.7695 8.98609 21.0366 8.31419C22.3228 7.6231 23.7913 7.27755 25.4423 7.27755C27.0741 7.27755 28.533 7.6231 29.8192 8.31419C31.1055 8.98609 32.1133 9.91715 32.8428 11.1074C33.5723 12.2976 33.937 13.6798 33.937 15.254C33.937 16.7897 33.5723 18.1623 32.8428 19.3717C32.1133 20.562 31.1055 21.5026 29.8192 22.1937C28.533 22.8848 27.0741 23.2304 25.4423 23.2304ZM25.4423 19.5445C26.191 19.5445 26.8629 19.3717 27.458 19.0262C28.0531 18.6806 28.5234 18.1911 28.869 17.5576C29.2145 16.9049 29.3873 16.137 29.3873 15.254C29.3873 14.3517 29.2145 13.5838 28.869 12.9503C28.5234 12.3168 28.0531 11.8273 27.458 11.4817C26.8629 11.1362 26.191 10.9634 25.4423 10.9634C24.6936 10.9634 24.0217 11.1362 23.4266 11.4817C22.8315 11.8273 22.3516 12.3168 21.9868 12.9503C21.6413 13.5838 21.4685 14.3517 21.4685 15.254C21.4685 16.137 21.6413 16.9049 21.9868 17.5576C22.3516 18.1911 22.8315 18.6806 23.4266 19.0262C24.0217 19.3717 24.6936 19.5445 25.4423 19.5445ZM44.3114 23.2304C42.6604 23.2304 41.1918 22.8848 39.9056 22.1937C38.6386 21.5026 37.6308 20.562 36.8821 19.3717C36.1526 18.1623 35.7878 16.7897 35.7878 15.254C35.7878 13.699 36.1526 12.3264 36.8821 11.1362C37.6308 9.92675 38.6386 8.98609 39.9056 8.31419C41.1918 7.6231 42.6604 7.27755 44.3114 7.27755C45.9431 7.27755 47.4021 7.6231 48.6883 8.31419C49.9745 8.98609 50.9824 9.91715 51.7119 11.1074C52.4413 12.2976 52.8061 13.6798 52.8061 15.254C52.8061 16.7897 52.4413 18.1623 51.7119 19.3717C50.9824 20.562 49.9745 21.5026 48.6883 22.1937C47.4021 22.8848 45.9431 23.2304 44.3114 23.2304ZM44.3114 19.5445C45.06 19.5445 45.7319 19.3717 46.3271 19.0262C46.9222 18.6806 47.3925 18.1911 47.738 17.5576C48.0836 16.9049 48.2564 16.137 48.2564 15.254C48.2564 14.3517 48.0836 13.5838 47.738 12.9503C47.3925 12.3168 46.9222 11.8273 46.3271 11.4817C45.7319 11.1362 45.06 10.9634 44.3114 10.9634C43.5627 10.9634 42.8908 11.1362 42.2957 11.4817C41.7006 11.8273 41.2206 12.3168 40.8559 12.9503C40.5103 13.5838 40.3376 14.3517 40.3376 15.254C40.3376 16.137 40.5103 16.9049 40.8559 17.5576C41.2206 18.1911 41.7006 18.6806 42.2957 19.0262C42.8908 19.3717 43.5627 19.5445 44.3114 19.5445ZM62.4605 23.2304C61.0015 23.2304 59.6865 22.904 58.5155 22.2513C57.3445 21.5794 56.4134 20.6484 55.7223 19.4581C55.0504 18.2679 54.7145 16.8665 54.7145 15.254C54.7145 13.6222 55.0504 12.2112 55.7223 11.021C56.4134 9.83077 57.3445 8.9093 58.5155 8.2566C59.6865 7.6039 61.0015 7.27755 62.4605 7.27755C63.7659 7.27755 64.9082 7.5655 65.8872 8.14142C66.8663 8.71733 67.6246 9.5908 68.1621 10.7618C68.6996 11.9329 68.9684 13.4302 68.9684 15.254C68.9684 17.0585 68.7092 18.5559 68.1909 19.7461C67.6725 20.9171 66.9239 21.7906 65.9448 22.3665C64.9849 22.9424 63.8235 23.2304 62.4605 23.2304ZM63.238 19.5445C63.9675 19.5445 64.6298 19.3717 65.2249 19.0262C65.82 18.6806 66.2904 18.1911 66.6359 17.5576C67.0006 16.9049 67.183 16.137 67.183 15.254C67.183 14.3517 67.0006 13.5838 66.6359 12.9503C66.2904 12.3168 65.82 11.8273 65.2249 11.4817C64.6298 11.1362 63.9675 10.9634 63.238 10.9634C62.4893 10.9634 61.8174 11.1362 61.2223 11.4817C60.6272 11.8273 60.1473 12.3168 59.7825 12.9503C59.437 13.5838 59.2642 14.3517 59.2642 15.254C59.2642 16.137 59.437 16.9049 59.7825 17.5576C60.1473 18.1911 60.6272 18.6806 61.2223 19.0262C61.8174 19.3717 62.4893 19.5445 63.238 19.5445ZM67.2982 23V19.8325L67.3846 15.2252L67.0966 10.6466V1.63359H71.5888V23H67.2982ZM92.096 23.2304C90.3299 23.2304 88.7749 22.8848 87.4311 22.1937C86.1065 21.5026 85.0795 20.562 84.35 19.3717C83.6205 18.1623 83.2557 16.7897 83.2557 15.254C83.2557 13.699 83.6109 12.3264 84.3212 11.1362C85.0507 9.92675 86.0393 8.98609 87.2871 8.31419C88.535 7.6231 89.9459 7.27755 91.5201 7.27755C93.0367 7.27755 94.3997 7.6039 95.6091 8.2566C96.8377 8.89011 97.8072 9.81157 98.5175 11.021C99.2278 12.2112 99.5829 13.6414 99.5829 15.3115C99.5829 15.4843 99.5733 15.6859 99.5541 15.9163C99.5349 16.1274 99.5157 16.329 99.4965 16.521H86.9128V13.9006H97.1353L95.4075 14.678C95.4075 13.8718 95.2444 13.1711 94.918 12.576C94.5917 11.9808 94.1405 11.5201 93.5646 11.1938C92.9887 10.8482 92.3168 10.6754 91.5489 10.6754C90.781 10.6754 90.0995 10.8482 89.5044 11.1938C88.9285 11.5201 88.4774 11.9904 88.151 12.6048C87.8247 13.1999 87.6615 13.9102 87.6615 14.7356V15.4267C87.6615 16.2714 87.8439 17.0201 88.2086 17.6728C88.5925 18.3063 89.1205 18.7958 89.7924 19.1414C90.4835 19.4677 91.2897 19.6309 92.2112 19.6309C93.0367 19.6309 93.7566 19.5061 94.3709 19.2566C95.0044 19.007 95.5803 18.6327 96.0986 18.1335L98.4887 20.7251C97.7784 21.5314 96.8857 22.1553 95.8107 22.5969C94.7356 23.0192 93.4974 23.2304 92.096 23.2304Z" fill="#232323"/>
<path d="M75.7464 23V7.50791H80.2385V23H75.7464ZM77.9924 5.34823C77.167 5.34823 76.4951 5.10827 75.9767 4.62834C75.4584 4.14841 75.1992 3.5533 75.1992 2.84301C75.1992 2.13271 75.4584 1.5376 75.9767 1.05768C76.4951 0.577747 77.167 0.337782 77.9924 0.337782C78.8179 0.337782 79.4898 0.568148 80.0081 1.02888C80.5264 1.47041 80.7856 2.04633 80.7856 2.75662C80.7856 3.50531 80.5264 4.12922 80.0081 4.62834C79.509 5.10827 78.8371 5.34823 77.9924 5.34823Z" fill="#FD4A6F"/>
</svg>
