<svg width="1202" height="45" viewBox="0 0 1202 45" fill="none" xmlns="http://www.w3.org/2000/svg">
<path d="M7.58025 20.9137H17.2556V24.6571H7.58025V20.9137ZM7.9258 32H3.26089V11.843H18.4938V15.5864H7.9258V32ZM28.3413 32.2304C26.6903 32.2304 25.2217 31.8848 23.9355 31.1937C22.6685 30.5026 21.6607 29.562 20.912 28.3717C20.1825 27.1623 19.8177 25.7897 19.8177 24.254C19.8177 22.699 20.1825 21.3264 20.912 20.1362C21.6607 18.9268 22.6685 17.9861 23.9355 17.3142C25.2217 16.6231 26.6903 16.2775 28.3413 16.2775C29.973 16.2775 31.432 16.6231 32.7182 17.3142C34.0044 17.9861 35.0123 18.9172 35.7418 20.1074C36.4713 21.2976 36.836 22.6798 36.836 24.254C36.836 25.7897 36.4713 27.1623 35.7418 28.3717C35.0123 29.562 34.0044 30.5026 32.7182 31.1937C31.432 31.8848 29.973 32.2304 28.3413 32.2304ZM28.3413 28.5445C29.09 28.5445 29.7619 28.3717 30.357 28.0262C30.9521 27.6806 31.4224 27.1911 31.768 26.5576C32.1135 25.9049 32.2863 25.137 32.2863 24.254C32.2863 23.3517 32.1135 22.5838 31.768 21.9503C31.4224 21.3168 30.9521 20.8273 30.357 20.4817C29.7619 20.1362 29.09 19.9634 28.3413 19.9634C27.5926 19.9634 26.9207 20.1362 26.3256 20.4817C25.7305 20.8273 25.2505 21.3168 24.8858 21.9503C24.5402 22.5838 24.3675 23.3517 24.3675 24.254C24.3675 25.137 24.5402 25.9049 24.8858 26.5576C25.2505 27.1911 25.7305 27.6806 26.3256 28.0262C26.9207 28.3717 27.5926 28.5445 28.3413 28.5445ZM47.2103 32.2304C45.5594 32.2304 44.0908 31.8848 42.8046 31.1937C41.5376 30.5026 40.5297 29.562 39.781 28.3717C39.0515 27.1623 38.6868 25.7897 38.6868 24.254C38.6868 22.699 39.0515 21.3264 39.781 20.1362C40.5297 18.9268 41.5376 17.9861 42.8046 17.3142C44.0908 16.6231 45.5594 16.2775 47.2103 16.2775C48.8421 16.2775 50.3011 16.6231 51.5873 17.3142C52.8735 17.9861 53.8813 18.9172 54.6108 20.1074C55.3403 21.2976 55.7051 22.6798 55.7051 24.254C55.7051 25.7897 55.3403 27.1623 54.6108 28.3717C53.8813 29.562 52.8735 30.5026 51.5873 31.1937C50.3011 31.8848 48.8421 32.2304 47.2103 32.2304ZM47.2103 28.5445C47.959 28.5445 48.6309 28.3717 49.226 28.0262C49.8211 27.6806 50.2915 27.1911 50.637 26.5576C50.9826 25.9049 51.1553 25.137 51.1553 24.254C51.1553 23.3517 50.9826 22.5838 50.637 21.9503C50.2915 21.3168 49.8211 20.8273 49.226 20.4817C48.6309 20.1362 47.959 19.9634 47.2103 19.9634C46.4616 19.9634 45.7897 20.1362 45.1946 20.4817C44.5995 20.8273 44.1196 21.3168 43.7548 21.9503C43.4093 22.5838 43.2365 23.3517 43.2365 24.254C43.2365 25.137 43.4093 25.9049 43.7548 26.5576C44.1196 27.1911 44.5995 27.6806 45.1946 28.0262C45.7897 28.3717 46.4616 28.5445 47.2103 28.5445ZM65.3595 32.2304C63.9005 32.2304 62.5855 31.904 61.4145 31.2513C60.2435 30.5794 59.3124 29.6484 58.6213 28.4581C57.9494 27.2679 57.6134 25.8665 57.6134 24.254C57.6134 22.6222 57.9494 21.2112 58.6213 20.021C59.3124 18.8308 60.2435 17.9093 61.4145 17.2566C62.5855 16.6039 63.9005 16.2775 65.3595 16.2775C66.6649 16.2775 67.8071 16.5655 68.7862 17.1414C69.7652 17.7173 70.5235 18.5908 71.061 19.7618C71.5986 20.9329 71.8673 22.4302 71.8673 24.254C71.8673 26.0585 71.6082 27.5559 71.0898 28.7461C70.5715 29.9171 69.8228 30.7906 68.8438 31.3665C67.8839 31.9424 66.7225 32.2304 65.3595 32.2304ZM66.137 28.5445C66.8665 28.5445 67.5288 28.3717 68.1239 28.0262C68.719 27.6806 69.1893 27.1911 69.5349 26.5576C69.8996 25.9049 70.082 25.137 70.082 24.254C70.082 23.3517 69.8996 22.5838 69.5349 21.9503C69.1893 21.3168 68.719 20.8273 68.1239 20.4817C67.5288 20.1362 66.8665 19.9634 66.137 19.9634C65.3883 19.9634 64.7164 20.1362 64.1213 20.4817C63.5262 20.8273 63.0462 21.3168 62.6815 21.9503C62.3359 22.5838 62.1632 23.3517 62.1632 24.254C62.1632 25.137 62.3359 25.9049 62.6815 26.5576C63.0462 27.1911 63.5262 27.6806 64.1213 28.0262C64.7164 28.3717 65.3883 28.5445 66.137 28.5445ZM70.1972 32V28.8325L70.2836 24.2252L69.9956 19.6466V10.6336H74.4877V32H70.1972ZM94.995 32.2304C93.2289 32.2304 91.6739 31.8848 90.3301 31.1937C89.0055 30.5026 87.9784 29.562 87.2489 28.3717C86.5195 27.1623 86.1547 25.7897 86.1547 24.254C86.1547 22.699 86.5099 21.3264 87.2201 20.1362C87.9496 18.9268 88.9383 17.9861 90.1861 17.3142C91.4339 16.6231 92.8449 16.2775 94.4191 16.2775C95.9356 16.2775 97.2986 16.6039 98.5081 17.2566C99.7367 17.8901 100.706 18.8116 101.416 20.021C102.127 21.2112 102.482 22.6414 102.482 24.3115C102.482 24.4843 102.472 24.6859 102.453 24.9163C102.434 25.1274 102.415 25.329 102.395 25.521H89.8118V22.9006H100.034L98.3065 23.678C98.3065 22.8718 98.1433 22.1711 97.817 21.576C97.4906 20.9808 97.0395 20.5201 96.4636 20.1938C95.8877 19.8482 95.2158 19.6754 94.4479 19.6754C93.68 19.6754 92.9985 19.8482 92.4034 20.1938C91.8275 20.5201 91.3763 20.9904 91.05 21.6048C90.7236 22.1999 90.5605 22.9102 90.5605 23.7356V24.4267C90.5605 25.2714 90.7428 26.0201 91.1076 26.6728C91.4915 27.3063 92.0194 27.7958 92.6913 28.1414C93.3824 28.4677 94.1887 28.6309 95.1102 28.6309C95.9356 28.6309 96.6555 28.5061 97.2698 28.2566C97.9034 28.007 98.4793 27.6327 98.9976 27.1335L101.388 29.7251C100.677 30.5314 99.7847 31.1553 98.7096 31.5969C97.6346 32.0192 96.3964 32.2304 94.995 32.2304Z" fill="#232323"/>
<path d="M78.6453 32V16.5079H83.1375V32H78.6453ZM80.8914 14.3482C80.0659 14.3482 79.394 14.1083 78.8757 13.6283C78.3574 13.1484 78.0982 12.5533 78.0982 11.843C78.0982 11.1327 78.3574 10.5376 78.8757 10.0577C79.394 9.57775 80.0659 9.33778 80.8914 9.33778C81.7169 9.33778 82.3888 9.56815 82.9071 10.0289C83.4254 10.4704 83.6846 11.0463 83.6846 11.7566C83.6846 12.5053 83.4254 13.1292 82.9071 13.6283C82.408 14.1083 81.7361 14.3482 80.8914 14.3482Z" fill="#FD4A6F"/>
<circle cx="47.387" cy="24.3656" r="5.53763" fill="#232323"/>
<circle cx="46.8708" cy="26" r="4" fill="white"/>
<circle cx="28.559" cy="24.3656" r="5.53763" fill="#232323"/>
<path d="M27.6281 36.4523L27.595 36.4333L27.5573 36.4387C27.5167 36.4444 27.4752 36.4504 27.4326 36.458L27.3319 36.4758L27.3417 36.5776C27.3462 36.6242 27.3471 36.6672 27.3482 36.7141C27.3489 36.7445 27.3496 36.7765 27.3514 36.8124C27.3554 36.8956 27.3652 36.9883 27.4008 37.0772L27.4009 37.0774C27.4251 37.1376 27.4493 37.198 27.4735 37.2585C27.6606 37.7264 27.8509 38.202 28.0906 38.6555C28.9568 40.2947 30.3177 41.5073 32.1027 42.3091C34.0652 43.1907 36.1573 43.4574 38.3125 43.2239C41.3776 42.8927 43.9765 41.7157 45.9967 39.5601C46.6101 38.9061 47.0963 38.1795 47.4203 37.3678L47.4204 37.3676C47.4559 37.278 47.4699 37.185 47.4779 37.1029C47.4815 37.0655 47.4838 37.0329 47.486 37.003C47.489 36.9608 47.4916 36.9237 47.4971 36.8856L47.5062 36.8218L47.4552 36.7823C47.367 36.7141 47.2886 36.6591 47.2168 36.6206C47.1449 36.5821 47.0729 36.5565 46.9985 36.5544C46.8427 36.5499 46.7259 36.649 46.6122 36.7758L46.6121 36.7759C46.4902 36.912 46.3883 37.0638 46.2984 37.2126L46.2983 37.2128C45.3893 38.7218 44.1745 39.9779 42.5575 40.887L42.6117 40.9836L42.5575 40.887C40.1939 42.2159 37.6283 42.746 34.8668 42.3645C32.8997 42.0926 31.2151 41.3072 29.8549 39.9847C28.9772 39.1313 28.3551 38.1454 27.9727 37.0332L27.9726 37.033C27.9613 37.0003 27.9515 36.9672 27.9409 36.9313C27.9374 36.9193 27.9338 36.907 27.9299 36.8942C27.9152 36.8451 27.8983 36.7919 27.8757 36.7397C27.8296 36.633 27.7584 36.5273 27.6281 36.4523Z" fill="black" stroke="black" stroke-width="0.221505"/>
<path d="M48.1212 36.4676L48.1591 36.4874L48.2005 36.4766C48.2913 36.4528 48.3688 36.426 48.4302 36.3944C48.4899 36.3638 48.5466 36.3225 48.5791 36.2635C48.6155 36.1973 48.612 36.1267 48.5838 36.064C48.558 36.0065 48.5116 35.9547 48.4581 35.9077L48.4578 35.9074C48.2694 35.743 47.9468 35.6216 47.6175 35.5558C47.2861 35.4895 46.9236 35.4746 46.6456 35.5423C46.5929 35.5549 46.5492 35.578 46.5078 35.6019C46.4955 35.609 46.4833 35.6162 46.4707 35.6236C46.4385 35.6427 46.4034 35.6634 46.357 35.6879L46.0703 35.8389L46.3895 35.8949C46.5109 35.9162 46.6292 35.9334 46.7399 35.9494C46.8016 35.9584 46.8609 35.967 46.9171 35.9758C47.0775 36.0009 47.2181 36.0282 47.3433 36.0708L47.3434 36.0709C47.4771 36.1161 47.6002 36.1775 47.7263 36.2471C47.7719 36.2723 47.8192 36.2993 47.8677 36.327C47.9495 36.3737 48.0347 36.4224 48.1212 36.4676ZM48.385 35.9909C48.5797 36.1618 48.52 36.2784 48.1725 36.3694C48.0873 36.3249 48.006 36.2785 47.926 36.2327C47.748 36.131 47.5758 36.0326 47.379 35.966L48.385 35.9909Z" fill="black" stroke="black" stroke-width="0.221505"/>
<path d="M27.1845 35.3338L27.161 35.3275L27.1371 35.3316C26.953 35.3631 26.8025 35.3925 26.6823 35.4234C26.5635 35.4539 26.4667 35.4876 26.3945 35.5306C26.3201 35.5749 26.2621 35.6352 26.2415 35.7199C26.2221 35.7995 26.2414 35.8796 26.2701 35.9521L26.3085 36.0496L26.408 36.0165C26.5498 35.9693 26.699 35.938 26.8611 35.904C26.9055 35.8947 26.9509 35.8852 26.9974 35.8751C27.2097 35.8289 27.4371 35.7717 27.6673 35.6661L27.9467 35.538L27.6498 35.4585C27.5674 35.4364 27.4974 35.4177 27.4363 35.4013C27.3311 35.3732 27.2527 35.3522 27.1845 35.3338Z" fill="black" stroke="black" stroke-width="0.221505"/>
<circle cx="27.8708" cy="25" r="4" fill="white"/>
<path d="M373.419 15.5505H375.759V28.1505H373.419V15.5505ZM366.903 28.1505H364.563V15.5505H366.903V28.1505ZM373.599 22.7505H366.705V20.7525H373.599V22.7505ZM383.239 28.2765C382.255 28.2765 381.379 28.0665 380.611 27.6465C379.843 27.2145 379.237 26.6265 378.793 25.8825C378.349 25.1385 378.127 24.2925 378.127 23.3445C378.127 22.3845 378.349 21.5385 378.793 20.8065C379.237 20.0625 379.843 19.4805 380.611 19.0605C381.379 18.6405 382.255 18.4305 383.239 18.4305C384.235 18.4305 385.117 18.6405 385.885 19.0605C386.665 19.4805 387.271 20.0565 387.703 20.7885C388.147 21.5205 388.369 22.3725 388.369 23.3445C388.369 24.2925 388.147 25.1385 387.703 25.8825C387.271 26.6265 386.665 27.2145 385.885 27.6465C385.117 28.0665 384.235 28.2765 383.239 28.2765ZM383.239 26.3505C383.791 26.3505 384.283 26.2305 384.715 25.9905C385.147 25.7505 385.483 25.4025 385.723 24.9465C385.975 24.4905 386.101 23.9565 386.101 23.3445C386.101 22.7205 385.975 22.1865 385.723 21.7425C385.483 21.2865 385.147 20.9385 384.715 20.6985C384.283 20.4585 383.797 20.3385 383.257 20.3385C382.705 20.3385 382.213 20.4585 381.781 20.6985C381.361 20.9385 381.025 21.2865 380.773 21.7425C380.521 22.1865 380.395 22.7205 380.395 23.3445C380.395 23.9565 380.521 24.4905 380.773 24.9465C381.025 25.4025 381.361 25.7505 381.781 25.9905C382.213 26.2305 382.699 26.3505 383.239 26.3505ZM402.653 18.4305C403.421 18.4305 404.099 18.5805 404.687 18.8805C405.287 19.1805 405.755 19.6425 406.091 20.2665C406.427 20.8785 406.595 21.6705 406.595 22.6425V28.1505H404.345V22.9305C404.345 22.0785 404.159 21.4425 403.787 21.0225C403.415 20.6025 402.881 20.3925 402.185 20.3925C401.693 20.3925 401.255 20.5005 400.871 20.7165C400.499 20.9325 400.205 21.2505 399.989 21.6705C399.785 22.0905 399.683 22.6245 399.683 23.2725V28.1505H397.433V22.9305C397.433 22.0785 397.247 21.4425 396.875 21.0225C396.503 20.6025 395.969 20.3925 395.273 20.3925C394.781 20.3925 394.343 20.5005 393.959 20.7165C393.587 20.9325 393.293 21.2505 393.077 21.6705C392.873 22.0905 392.771 22.6245 392.771 23.2725V28.1505H390.521V18.5385H392.663V21.0945L392.285 20.3385C392.609 19.7145 393.077 19.2405 393.689 18.9165C394.313 18.5925 395.021 18.4305 395.813 18.4305C396.713 18.4305 397.493 18.6525 398.153 19.0965C398.825 19.5405 399.269 20.2125 399.485 21.1125L398.603 20.8065C398.915 20.0865 399.431 19.5105 400.151 19.0785C400.871 18.6465 401.705 18.4305 402.653 18.4305ZM414.005 28.2765C412.937 28.2765 412.001 28.0665 411.197 27.6465C410.405 27.2145 409.787 26.6265 409.343 25.8825C408.911 25.1385 408.695 24.2925 408.695 23.3445C408.695 22.3845 408.905 21.5385 409.325 20.8065C409.757 20.0625 410.345 19.4805 411.089 19.0605C411.845 18.6405 412.703 18.4305 413.663 18.4305C414.599 18.4305 415.433 18.6345 416.165 19.0425C416.897 19.4505 417.473 20.0265 417.893 20.7705C418.313 21.5145 418.523 22.3905 418.523 23.3985C418.523 23.4945 418.517 23.6025 418.505 23.7225C418.505 23.8425 418.499 23.9565 418.487 24.0645H410.477V22.5705H417.299L416.417 23.0385C416.429 22.4865 416.315 22.0005 416.075 21.5805C415.835 21.1605 415.505 20.8305 415.085 20.5905C414.677 20.3505 414.203 20.2305 413.663 20.2305C413.111 20.2305 412.625 20.3505 412.205 20.5905C411.797 20.8305 411.473 21.1665 411.233 21.5985C411.005 22.0185 410.891 22.5165 410.891 23.0925V23.4525C410.891 24.0285 411.023 24.5385 411.287 24.9825C411.551 25.4265 411.923 25.7685 412.403 26.0085C412.883 26.2485 413.435 26.3685 414.059 26.3685C414.599 26.3685 415.085 26.2845 415.517 26.1165C415.949 25.9485 416.333 25.6845 416.669 25.3245L417.875 26.7105C417.443 27.2145 416.897 27.6045 416.237 27.8805C415.589 28.1445 414.845 28.2765 414.005 28.2765Z" fill="#232323"/>
<path d="M446.563 28.1505V15.5505H448.489L453.997 24.7485H452.989L458.407 15.5505H460.333L460.351 28.1505H458.137L458.119 19.0245H458.587L453.979 26.7105H452.935L448.255 19.0245H448.795V28.1505H446.563ZM468.056 28.2765C466.988 28.2765 466.052 28.0665 465.248 27.6465C464.456 27.2145 463.838 26.6265 463.394 25.8825C462.962 25.1385 462.746 24.2925 462.746 23.3445C462.746 22.3845 462.956 21.5385 463.376 20.8065C463.808 20.0625 464.396 19.4805 465.14 19.0605C465.896 18.6405 466.754 18.4305 467.714 18.4305C468.65 18.4305 469.484 18.6345 470.216 19.0425C470.948 19.4505 471.524 20.0265 471.944 20.7705C472.364 21.5145 472.574 22.3905 472.574 23.3985C472.574 23.4945 472.568 23.6025 472.556 23.7225C472.556 23.8425 472.55 23.9565 472.538 24.0645H464.528V22.5705H471.35L470.468 23.0385C470.48 22.4865 470.366 22.0005 470.126 21.5805C469.886 21.1605 469.556 20.8305 469.136 20.5905C468.728 20.3505 468.254 20.2305 467.714 20.2305C467.162 20.2305 466.676 20.3505 466.256 20.5905C465.848 20.8305 465.524 21.1665 465.284 21.5985C465.056 22.0185 464.942 22.5165 464.942 23.0925V23.4525C464.942 24.0285 465.074 24.5385 465.338 24.9825C465.602 25.4265 465.974 25.7685 466.454 26.0085C466.934 26.2485 467.486 26.3685 468.11 26.3685C468.65 26.3685 469.136 26.2845 469.568 26.1165C470 25.9485 470.384 25.6845 470.72 25.3245L471.926 26.7105C471.494 27.2145 470.948 27.6045 470.288 27.8805C469.64 28.1445 468.896 28.2765 468.056 28.2765ZM480.19 18.4305C480.958 18.4305 481.642 18.5805 482.242 18.8805C482.854 19.1805 483.334 19.6425 483.682 20.2665C484.03 20.8785 484.204 21.6705 484.204 22.6425V28.1505H481.954V22.9305C481.954 22.0785 481.75 21.4425 481.342 21.0225C480.946 20.6025 480.388 20.3925 479.668 20.3925C479.14 20.3925 478.672 20.5005 478.264 20.7165C477.856 20.9325 477.538 21.2565 477.31 21.6885C477.094 22.1085 476.986 22.6425 476.986 23.2905V28.1505H474.736V18.5385H476.878V21.1305L476.5 20.3385C476.836 19.7265 477.322 19.2585 477.958 18.9345C478.606 18.5985 479.35 18.4305 480.19 18.4305ZM491.126 28.2765C490.31 28.2765 489.59 28.1265 488.966 27.8265C488.342 27.5145 487.856 27.0465 487.508 26.4225C487.16 25.7865 486.986 24.9885 486.986 24.0285V18.5385H489.236V23.7225C489.236 24.5865 489.428 25.2345 489.812 25.6665C490.208 26.0865 490.766 26.2965 491.486 26.2965C492.014 26.2965 492.47 26.1885 492.854 25.9725C493.25 25.7565 493.556 25.4325 493.772 25.0005C494 24.5685 494.114 24.0345 494.114 23.3985V18.5385H496.364V28.1505H494.222V25.5585L494.6 26.3505C494.276 26.9745 493.802 27.4545 493.178 27.7905C492.554 28.1145 491.87 28.2765 491.126 28.2765Z" fill="#49536A"/>
<path d="M524.563 28.1505V15.5505H529.747C530.863 15.5505 531.817 15.7305 532.609 16.0905C533.413 16.4505 534.031 16.9665 534.463 17.6385C534.895 18.3105 535.111 19.1085 535.111 20.0325C535.111 20.9565 534.895 21.7545 534.463 22.4265C534.031 23.0865 533.413 23.5965 532.609 23.9565C531.817 24.3045 530.863 24.4785 529.747 24.4785H525.859L526.903 23.4165V28.1505H524.563ZM532.807 28.1505L529.621 23.5785H532.123L535.327 28.1505H532.807ZM526.903 23.6685L525.859 22.5525H529.639C530.671 22.5525 531.445 22.3305 531.961 21.8865C532.489 21.4425 532.753 20.8245 532.753 20.0325C532.753 19.2285 532.489 18.6105 531.961 18.1785C531.445 17.7465 530.671 17.5305 529.639 17.5305H525.859L526.903 16.3785V23.6685ZM542.031 28.2765C540.963 28.2765 540.027 28.0665 539.223 27.6465C538.431 27.2145 537.813 26.6265 537.369 25.8825C536.937 25.1385 536.721 24.2925 536.721 23.3445C536.721 22.3845 536.931 21.5385 537.351 20.8065C537.783 20.0625 538.371 19.4805 539.115 19.0605C539.871 18.6405 540.729 18.4305 541.689 18.4305C542.625 18.4305 543.459 18.6345 544.191 19.0425C544.923 19.4505 545.499 20.0265 545.919 20.7705C546.339 21.5145 546.549 22.3905 546.549 23.3985C546.549 23.4945 546.543 23.6025 546.531 23.7225C546.531 23.8425 546.525 23.9565 546.513 24.0645H538.503V22.5705H545.325L544.443 23.0385C544.455 22.4865 544.341 22.0005 544.101 21.5805C543.861 21.1605 543.531 20.8305 543.111 20.5905C542.703 20.3505 542.229 20.2305 541.689 20.2305C541.137 20.2305 540.651 20.3505 540.231 20.5905C539.823 20.8305 539.499 21.1665 539.259 21.5985C539.031 22.0185 538.917 22.5165 538.917 23.0925V23.4525C538.917 24.0285 539.049 24.5385 539.313 24.9825C539.577 25.4265 539.949 25.7685 540.429 26.0085C540.909 26.2485 541.461 26.3685 542.085 26.3685C542.625 26.3685 543.111 26.2845 543.543 26.1165C543.975 25.9485 544.359 25.6845 544.695 25.3245L545.901 26.7105C545.469 27.2145 544.923 27.6045 544.263 27.8805C543.615 28.1445 542.871 28.2765 542.031 28.2765ZM551.09 28.1505L546.968 18.5385H549.308L552.854 27.0165H551.702L555.374 18.5385H557.534L553.412 28.1505H551.09ZM558.941 28.1505V18.5385H561.191V28.1505H558.941ZM560.075 16.9545C559.655 16.9545 559.307 16.8225 559.031 16.5585C558.767 16.2945 558.635 15.9765 558.635 15.6045C558.635 15.2205 558.767 14.9025 559.031 14.6505C559.307 14.3865 559.655 14.2545 560.075 14.2545C560.495 14.2545 560.837 14.3805 561.101 14.6325C561.377 14.8725 561.515 15.1785 561.515 15.5505C561.515 15.9465 561.383 16.2825 561.119 16.5585C560.855 16.8225 560.507 16.9545 560.075 16.9545ZM568.662 28.2765C567.594 28.2765 566.658 28.0665 565.854 27.6465C565.062 27.2145 564.444 26.6265 564 25.8825C563.568 25.1385 563.352 24.2925 563.352 23.3445C563.352 22.3845 563.562 21.5385 563.982 20.8065C564.414 20.0625 565.002 19.4805 565.746 19.0605C566.502 18.6405 567.36 18.4305 568.32 18.4305C569.256 18.4305 570.09 18.6345 570.822 19.0425C571.554 19.4505 572.13 20.0265 572.55 20.7705C572.97 21.5145 573.18 22.3905 573.18 23.3985C573.18 23.4945 573.174 23.6025 573.162 23.7225C573.162 23.8425 573.156 23.9565 573.144 24.0645H565.134V22.5705H571.956L571.074 23.0385C571.086 22.4865 570.972 22.0005 570.732 21.5805C570.492 21.1605 570.162 20.8305 569.742 20.5905C569.334 20.3505 568.86 20.2305 568.32 20.2305C567.768 20.2305 567.282 20.3505 566.862 20.5905C566.454 20.8305 566.13 21.1665 565.89 21.5985C565.662 22.0185 565.548 22.5165 565.548 23.0925V23.4525C565.548 24.0285 565.68 24.5385 565.944 24.9825C566.208 25.4265 566.58 25.7685 567.06 26.0085C567.54 26.2485 568.092 26.3685 568.716 26.3685C569.256 26.3685 569.742 26.2845 570.174 26.1165C570.606 25.9485 570.99 25.6845 571.326 25.3245L572.532 26.7105C572.1 27.2145 571.554 27.6045 570.894 27.8805C570.246 28.1445 569.502 28.2765 568.662 28.2765ZM577.289 28.1505L573.761 18.5385H575.885L578.909 27.0165H577.901L581.069 18.5385H582.959L586.037 27.0165H585.047L588.161 18.5385H590.159L586.613 28.1505H584.453L581.645 20.6445H582.311L579.449 28.1505H577.289ZM594.553 28.2765C593.749 28.2765 592.975 28.1745 592.231 27.9705C591.499 27.7545 590.917 27.4965 590.485 27.1965L591.349 25.4865C591.781 25.7625 592.297 25.9905 592.897 26.1705C593.497 26.3505 594.097 26.4405 594.697 26.4405C595.405 26.4405 595.915 26.3445 596.227 26.1525C596.551 25.9605 596.713 25.7025 596.713 25.3785C596.713 25.1145 596.605 24.9165 596.389 24.7845C596.173 24.6405 595.891 24.5325 595.543 24.4605C595.195 24.3885 594.805 24.3225 594.373 24.2625C593.953 24.2025 593.527 24.1245 593.095 24.0285C592.675 23.9205 592.291 23.7705 591.943 23.5785C591.595 23.3745 591.313 23.1045 591.097 22.7685C590.881 22.4325 590.773 21.9885 590.773 21.4365C590.773 20.8245 590.947 20.2965 591.295 19.8525C591.643 19.3965 592.129 19.0485 592.753 18.8085C593.389 18.5565 594.139 18.4305 595.003 18.4305C595.651 18.4305 596.305 18.5025 596.965 18.6465C597.625 18.7905 598.171 18.9945 598.603 19.2585L597.739 20.9685C597.283 20.6925 596.821 20.5065 596.353 20.4105C595.897 20.3025 595.441 20.2485 594.985 20.2485C594.301 20.2485 593.791 20.3505 593.455 20.5545C593.131 20.7585 592.969 21.0165 592.969 21.3285C592.969 21.6165 593.077 21.8325 593.293 21.9765C593.509 22.1205 593.791 22.2345 594.139 22.3185C594.487 22.4025 594.871 22.4745 595.291 22.5345C595.723 22.5825 596.149 22.6605 596.569 22.7685C596.989 22.8765 597.373 23.0265 597.721 23.2185C598.081 23.3985 598.369 23.6565 598.585 23.9925C598.801 24.3285 598.909 24.7665 598.909 25.3065C598.909 25.9065 598.729 26.4285 598.369 26.8725C598.021 27.3165 597.523 27.6645 596.875 27.9165C596.227 28.1565 595.453 28.2765 594.553 28.2765Z" fill="#49536A"/>
<path d="M626.563 28.1505V15.5505H632.467C633.979 15.5505 635.131 15.8505 635.923 16.4505C636.715 17.0385 637.111 17.8305 637.111 18.8265C637.111 19.4985 636.955 20.0745 636.643 20.5545C636.331 21.0225 635.911 21.3885 635.383 21.6525C634.867 21.9045 634.303 22.0305 633.691 22.0305L634.015 21.3825C634.723 21.3825 635.359 21.5145 635.923 21.7785C636.487 22.0305 636.931 22.4025 637.255 22.8945C637.591 23.3865 637.759 23.9985 637.759 24.7305C637.759 25.8105 637.345 26.6505 636.517 27.2505C635.689 27.8505 634.459 28.1505 632.827 28.1505H626.563ZM628.903 26.3145H632.683C633.559 26.3145 634.231 26.1705 634.699 25.8825C635.167 25.5945 635.401 25.1325 635.401 24.4965C635.401 23.8725 635.167 23.4165 634.699 23.1285C634.231 22.8285 633.559 22.6785 632.683 22.6785H628.723V20.8605H632.215C633.031 20.8605 633.655 20.7165 634.087 20.4285C634.531 20.1405 634.753 19.7085 634.753 19.1325C634.753 18.5445 634.531 18.1065 634.087 17.8185C633.655 17.5305 633.031 17.3865 632.215 17.3865H628.903V26.3145ZM640.04 28.1505V14.7945H642.29V28.1505H640.04ZM649.563 28.2765C648.579 28.2765 647.703 28.0665 646.935 27.6465C646.167 27.2145 645.561 26.6265 645.117 25.8825C644.673 25.1385 644.451 24.2925 644.451 23.3445C644.451 22.3845 644.673 21.5385 645.117 20.8065C645.561 20.0625 646.167 19.4805 646.935 19.0605C647.703 18.6405 648.579 18.4305 649.563 18.4305C650.559 18.4305 651.441 18.6405 652.209 19.0605C652.989 19.4805 653.595 20.0565 654.027 20.7885C654.471 21.5205 654.693 22.3725 654.693 23.3445C654.693 24.2925 654.471 25.1385 654.027 25.8825C653.595 26.6265 652.989 27.2145 652.209 27.6465C651.441 28.0665 650.559 28.2765 649.563 28.2765ZM649.563 26.3505C650.115 26.3505 650.607 26.2305 651.039 25.9905C651.471 25.7505 651.807 25.4025 652.047 24.9465C652.299 24.4905 652.425 23.9565 652.425 23.3445C652.425 22.7205 652.299 22.1865 652.047 21.7425C651.807 21.2865 651.471 20.9385 651.039 20.6985C650.607 20.4585 650.121 20.3385 649.581 20.3385C649.029 20.3385 648.537 20.4585 648.105 20.6985C647.685 20.9385 647.349 21.2865 647.097 21.7425C646.845 22.1865 646.719 22.7205 646.719 23.3445C646.719 23.9565 646.845 24.4905 647.097 24.9465C647.349 25.4025 647.685 25.7505 648.105 25.9905C648.537 26.2305 649.023 26.3505 649.563 26.3505ZM661.201 31.7685C660.313 31.7685 659.443 31.6485 658.591 31.4085C657.751 31.1805 657.061 30.8445 656.521 30.4005L657.529 28.7085C657.949 29.0565 658.477 29.3325 659.113 29.5365C659.761 29.7525 660.415 29.8605 661.075 29.8605C662.131 29.8605 662.905 29.6145 663.397 29.1225C663.889 28.6425 664.135 27.9165 664.135 26.9445V25.2345L664.315 23.0565L664.243 20.8785V18.5385H666.385V26.6925C666.385 28.4325 665.941 29.7105 665.053 30.5265C664.165 31.3545 662.881 31.7685 661.201 31.7685ZM660.913 27.7185C660.001 27.7185 659.173 27.5265 658.429 27.1425C657.697 26.7465 657.115 26.2005 656.683 25.5045C656.263 24.8085 656.053 23.9925 656.053 23.0565C656.053 22.1325 656.263 21.3225 656.683 20.6265C657.115 19.9305 657.697 19.3905 658.429 19.0065C659.173 18.6225 660.001 18.4305 660.913 18.4305C661.729 18.4305 662.461 18.5925 663.109 18.9165C663.757 19.2405 664.273 19.7445 664.657 20.4285C665.053 21.1125 665.251 21.9885 665.251 23.0565C665.251 24.1245 665.053 25.0065 664.657 25.7025C664.273 26.3865 663.757 26.8965 663.109 27.2325C662.461 27.5565 661.729 27.7185 660.913 27.7185ZM661.255 25.8105C661.819 25.8105 662.323 25.6965 662.767 25.4685C663.211 25.2285 663.553 24.9045 663.793 24.4965C664.045 24.0765 664.171 23.5965 664.171 23.0565C664.171 22.5165 664.045 22.0425 663.793 21.6345C663.553 21.2145 663.211 20.8965 662.767 20.6805C662.323 20.4525 661.819 20.3385 661.255 20.3385C660.691 20.3385 660.181 20.4525 659.725 20.6805C659.281 20.8965 658.933 21.2145 658.681 21.6345C658.441 22.0425 658.321 22.5165 658.321 23.0565C658.321 23.5965 658.441 24.0765 658.681 24.4965C658.933 24.9045 659.281 25.2285 659.725 25.4685C660.181 25.6965 660.691 25.8105 661.255 25.8105Z" fill="#49536A"/>
<path d="M700.395 28.3305C699.435 28.3305 698.541 28.1745 697.713 27.8625C696.897 27.5385 696.183 27.0885 695.571 26.5125C694.971 25.9245 694.503 25.2345 694.167 24.4425C693.831 23.6505 693.663 22.7865 693.663 21.8505C693.663 20.9145 693.831 20.0505 694.167 19.2585C694.503 18.4665 694.977 17.7825 695.589 17.2065C696.201 16.6185 696.915 16.1685 697.731 15.8565C698.547 15.5325 699.441 15.3705 700.413 15.3705C701.445 15.3705 702.387 15.5505 703.239 15.9105C704.091 16.2585 704.811 16.7805 705.399 17.4765L703.887 18.8985C703.431 18.4065 702.921 18.0405 702.357 17.8005C701.793 17.5485 701.181 17.4225 700.521 17.4225C699.861 17.4225 699.255 17.5305 698.703 17.7465C698.163 17.9625 697.689 18.2685 697.281 18.6645C696.885 19.0605 696.573 19.5285 696.345 20.0685C696.129 20.6085 696.021 21.2025 696.021 21.8505C696.021 22.4985 696.129 23.0925 696.345 23.6325C696.573 24.1725 696.885 24.6405 697.281 25.0365C697.689 25.4325 698.163 25.7385 698.703 25.9545C699.255 26.1705 699.861 26.2785 700.521 26.2785C701.181 26.2785 701.793 26.1585 702.357 25.9185C702.921 25.6665 703.431 25.2885 703.887 24.7845L705.399 26.2245C704.811 26.9085 704.091 27.4305 703.239 27.7905C702.387 28.1505 701.439 28.3305 700.395 28.3305ZM711.393 28.2765C710.409 28.2765 709.533 28.0665 708.765 27.6465C707.997 27.2145 707.391 26.6265 706.947 25.8825C706.503 25.1385 706.281 24.2925 706.281 23.3445C706.281 22.3845 706.503 21.5385 706.947 20.8065C707.391 20.0625 707.997 19.4805 708.765 19.0605C709.533 18.6405 710.409 18.4305 711.393 18.4305C712.389 18.4305 713.271 18.6405 714.039 19.0605C714.819 19.4805 715.425 20.0565 715.857 20.7885C716.301 21.5205 716.523 22.3725 716.523 23.3445C716.523 24.2925 716.301 25.1385 715.857 25.8825C715.425 26.6265 714.819 27.2145 714.039 27.6465C713.271 28.0665 712.389 28.2765 711.393 28.2765ZM711.393 26.3505C711.945 26.3505 712.437 26.2305 712.869 25.9905C713.301 25.7505 713.637 25.4025 713.877 24.9465C714.129 24.4905 714.255 23.9565 714.255 23.3445C714.255 22.7205 714.129 22.1865 713.877 21.7425C713.637 21.2865 713.301 20.9385 712.869 20.6985C712.437 20.4585 711.951 20.3385 711.411 20.3385C710.859 20.3385 710.367 20.4585 709.935 20.6985C709.515 20.9385 709.179 21.2865 708.927 21.7425C708.675 22.1865 708.549 22.7205 708.549 23.3445C708.549 23.9565 708.675 24.4905 708.927 24.9465C709.179 25.4025 709.515 25.7505 709.935 25.9905C710.367 26.2305 710.853 26.3505 711.393 26.3505ZM724.129 18.4305C724.897 18.4305 725.581 18.5805 726.181 18.8805C726.793 19.1805 727.273 19.6425 727.621 20.2665C727.969 20.8785 728.143 21.6705 728.143 22.6425V28.1505H725.893V22.9305C725.893 22.0785 725.689 21.4425 725.281 21.0225C724.885 20.6025 724.327 20.3925 723.607 20.3925C723.079 20.3925 722.611 20.5005 722.203 20.7165C721.795 20.9325 721.477 21.2565 721.249 21.6885C721.033 22.1085 720.925 22.6425 720.925 23.2905V28.1505H718.675V18.5385H720.817V21.1305L720.439 20.3385C720.775 19.7265 721.261 19.2585 721.897 18.9345C722.545 18.5985 723.289 18.4305 724.129 18.4305ZM734.615 28.2765C733.559 28.2765 732.743 28.0065 732.167 27.4665C731.591 26.9145 731.303 26.1045 731.303 25.0365V16.4145H733.553V24.9825C733.553 25.4385 733.667 25.7925 733.895 26.0445C734.135 26.2965 734.465 26.4225 734.885 26.4225C735.389 26.4225 735.809 26.2905 736.145 26.0265L736.775 27.6285C736.511 27.8445 736.187 28.0065 735.803 28.1145C735.419 28.2225 735.023 28.2765 734.615 28.2765ZM729.719 20.4105V18.6105H736.127V20.4105H729.719ZM744.548 28.1505V26.2065L744.422 25.7925V22.3905C744.422 21.7305 744.224 21.2205 743.828 20.8605C743.432 20.4885 742.832 20.3025 742.028 20.3025C741.488 20.3025 740.954 20.3865 740.426 20.5545C739.91 20.7225 739.472 20.9565 739.112 21.2565L738.23 19.6185C738.746 19.2225 739.358 18.9285 740.066 18.7365C740.786 18.5325 741.53 18.4305 742.298 18.4305C743.69 18.4305 744.764 18.7665 745.52 19.4385C746.288 20.0985 746.672 21.1245 746.672 22.5165V28.1505H744.548ZM741.524 28.2765C740.804 28.2765 740.174 28.1565 739.634 27.9165C739.094 27.6645 738.674 27.3225 738.374 26.8905C738.086 26.4465 737.942 25.9485 737.942 25.3965C737.942 24.8565 738.068 24.3705 738.32 23.9385C738.584 23.5065 739.01 23.1645 739.598 22.9125C740.186 22.6605 740.966 22.5345 741.938 22.5345H744.728V24.0285H742.1C741.332 24.0285 740.816 24.1545 740.552 24.4065C740.288 24.6465 740.156 24.9465 740.156 25.3065C740.156 25.7145 740.318 26.0385 740.642 26.2785C740.966 26.5185 741.416 26.6385 741.992 26.6385C742.544 26.6385 743.036 26.5125 743.468 26.2605C743.912 26.0085 744.23 25.6365 744.422 25.1445L744.8 26.4945C744.584 27.0585 744.194 27.4965 743.63 27.8085C743.078 28.1205 742.376 28.2765 741.524 28.2765ZM753.987 28.2765C752.979 28.2765 752.079 28.0665 751.287 27.6465C750.507 27.2145 749.895 26.6265 749.451 25.8825C749.007 25.1385 748.785 24.2925 748.785 23.3445C748.785 22.3845 749.007 21.5385 749.451 20.8065C749.895 20.0625 750.507 19.4805 751.287 19.0605C752.079 18.6405 752.979 18.4305 753.987 18.4305C754.923 18.4305 755.745 18.6225 756.453 19.0065C757.173 19.3785 757.719 19.9305 758.091 20.6625L756.363 21.6705C756.075 21.2145 755.721 20.8785 755.301 20.6625C754.893 20.4465 754.449 20.3385 753.969 20.3385C753.417 20.3385 752.919 20.4585 752.475 20.6985C752.031 20.9385 751.683 21.2865 751.431 21.7425C751.179 22.1865 751.053 22.7205 751.053 23.3445C751.053 23.9685 751.179 24.5085 751.431 24.9645C751.683 25.4085 752.031 25.7505 752.475 25.9905C752.919 26.2305 753.417 26.3505 753.969 26.3505C754.449 26.3505 754.893 26.2425 755.301 26.0265C755.721 25.8105 756.075 25.4745 756.363 25.0185L758.091 26.0265C757.719 26.7465 757.173 27.3045 756.453 27.7005C755.745 28.0845 754.923 28.2765 753.987 28.2765ZM763.777 28.2765C762.721 28.2765 761.905 28.0065 761.329 27.4665C760.753 26.9145 760.465 26.1045 760.465 25.0365V16.4145H762.715V24.9825C762.715 25.4385 762.829 25.7925 763.057 26.0445C763.297 26.2965 763.627 26.4225 764.047 26.4225C764.551 26.4225 764.971 26.2905 765.307 26.0265L765.937 27.6285C765.673 27.8445 765.349 28.0065 764.965 28.1145C764.581 28.2225 764.185 28.2765 763.777 28.2765ZM758.881 20.4105V18.6105H765.289V20.4105H758.881ZM770.758 28.2765C769.954 28.2765 769.18 28.1745 768.436 27.9705C767.704 27.7545 767.122 27.4965 766.69 27.1965L767.554 25.4865C767.986 25.7625 768.502 25.9905 769.102 26.1705C769.702 26.3505 770.302 26.4405 770.902 26.4405C771.61 26.4405 772.12 26.3445 772.432 26.1525C772.756 25.9605 772.918 25.7025 772.918 25.3785C772.918 25.1145 772.81 24.9165 772.594 24.7845C772.378 24.6405 772.096 24.5325 771.748 24.4605C771.4 24.3885 771.01 24.3225 770.578 24.2625C770.158 24.2025 769.732 24.1245 769.3 24.0285C768.88 23.9205 768.496 23.7705 768.148 23.5785C767.8 23.3745 767.518 23.1045 767.302 22.7685C767.086 22.4325 766.978 21.9885 766.978 21.4365C766.978 20.8245 767.152 20.2965 767.5 19.8525C767.848 19.3965 768.334 19.0485 768.958 18.8085C769.594 18.5565 770.344 18.4305 771.208 18.4305C771.856 18.4305 772.51 18.5025 773.17 18.6465C773.83 18.7905 774.376 18.9945 774.808 19.2585L773.944 20.9685C773.488 20.6925 773.026 20.5065 772.558 20.4105C772.102 20.3025 771.646 20.2485 771.19 20.2485C770.506 20.2485 769.996 20.3505 769.66 20.5545C769.336 20.7585 769.174 21.0165 769.174 21.3285C769.174 21.6165 769.282 21.8325 769.498 21.9765C769.714 22.1205 769.996 22.2345 770.344 22.3185C770.692 22.4025 771.076 22.4745 771.496 22.5345C771.928 22.5825 772.354 22.6605 772.774 22.7685C773.194 22.8765 773.578 23.0265 773.926 23.2185C774.286 23.3985 774.574 23.6565 774.79 23.9925C775.006 24.3285 775.114 24.7665 775.114 25.3065C775.114 25.9065 774.934 26.4285 774.574 26.8725C774.226 27.3165 773.728 27.6645 773.08 27.9165C772.432 28.1565 771.658 28.2765 770.758 28.2765Z" fill="#49536A"/>
<path d="M1050.89 17.851C1050.29 18.1164 1049.66 18.2823 1048.99 18.3818C1049.66 17.9837 1050.19 17.3534 1050.43 16.5905C1049.79 16.9554 1049.09 17.2208 1048.32 17.3866C1047.72 16.7563 1046.86 16.3583 1045.92 16.3583C1044.12 16.3583 1042.65 17.8179 1042.65 19.6092C1042.65 19.8745 1042.68 20.1067 1042.75 20.339C1040.05 20.2063 1037.61 18.9125 1035.97 16.9222C1035.71 17.4198 1035.54 17.9505 1035.54 18.5476C1035.54 19.6755 1036.11 20.6707 1037.01 21.2678C1036.47 21.2346 1035.97 21.1019 1035.51 20.8697V20.9029C1035.51 22.4951 1036.64 23.822 1038.14 24.1206C1037.88 24.1869 1037.57 24.2201 1037.27 24.2201C1037.07 24.2201 1036.84 24.1869 1036.64 24.1538C1037.07 25.4475 1038.28 26.4095 1039.71 26.4095C1038.58 27.272 1037.17 27.8027 1035.64 27.8027C1035.37 27.8027 1035.1 27.8027 1034.87 27.7695C1036.34 28.6984 1038.04 29.2291 1039.91 29.2291C1045.95 29.2291 1049.26 24.2533 1049.26 19.9409C1049.26 19.8082 1049.26 19.6423 1049.26 19.5096C1049.89 19.0784 1050.46 18.5145 1050.89 17.851Z" fill="#27272A"/>
<path d="M1087.97 31.1331V23.2194H1085.29V20.1353H1087.97V17.8608C1087.97 15.2213 1089.59 13.7841 1091.96 13.7841C1093.1 13.7841 1094.07 13.868 1094.36 13.9056V16.664L1092.71 16.6647C1091.42 16.6647 1091.17 17.2732 1091.17 18.1662V20.1353H1094.25L1093.85 23.2194H1091.17V31.1331H1087.97Z" fill="#18181B"/>
<path d="M1138.46 14.2364C1141.05 14.2364 1141.36 14.246 1142.38 14.2924C1143 14.2999 1143.61 14.4123 1144.19 14.6248C1144.61 14.7854 1144.99 15.0314 1145.31 15.3469C1145.62 15.6625 1145.87 16.0406 1146.03 16.457C1146.25 17.0312 1146.36 17.6376 1146.37 18.2498C1146.41 19.2679 1146.42 19.5732 1146.42 22.1505C1146.42 24.7279 1146.41 25.0332 1146.37 26.0513C1146.36 26.6635 1146.25 27.2699 1146.03 27.8441C1145.87 28.2604 1145.62 28.6386 1145.31 28.9542C1144.99 29.2697 1144.61 29.5157 1144.19 29.6763C1143.61 29.8888 1143 30.0012 1142.38 30.0087C1141.36 30.0546 1141.05 30.0647 1138.46 30.0647C1135.86 30.0647 1135.56 30.0551 1134.53 30.0087C1133.92 30.0012 1133.31 29.8888 1132.73 29.6763C1132.31 29.5157 1131.93 29.2697 1131.61 28.9542C1131.29 28.6386 1131.05 28.2604 1130.89 27.8441C1130.67 27.2699 1130.56 26.6635 1130.55 26.0513C1130.51 25.0332 1130.49 24.7279 1130.49 22.1505C1130.49 19.5732 1130.5 19.2679 1130.55 18.2498C1130.56 17.6376 1130.67 17.0312 1130.89 16.457C1131.05 16.0406 1131.29 15.6625 1131.61 15.3469C1131.93 15.0314 1132.31 14.7854 1132.73 14.6248C1133.31 14.4123 1133.92 14.2999 1134.53 14.2924C1135.56 14.2465 1135.87 14.2364 1138.46 14.2364ZM1138.46 12.4969C1135.82 12.4969 1135.49 12.508 1134.45 12.5549C1133.65 12.5708 1132.85 12.7225 1132.09 13.0035C1131.45 13.2461 1130.86 13.6262 1130.38 14.1173C1129.88 14.5992 1129.5 15.1826 1129.25 15.8268C1128.97 16.5773 1128.82 17.37 1128.8 18.1712C1128.76 19.1999 1128.74 19.5299 1128.74 22.1501C1128.74 24.7702 1128.76 25.1003 1128.8 26.1299C1128.82 26.9311 1128.97 27.7238 1129.25 28.4743C1129.5 29.1184 1129.88 29.7018 1130.38 30.1838C1130.86 30.675 1131.45 31.0551 1132.1 31.2976C1132.85 31.5786 1133.65 31.7303 1134.46 31.7462C1135.49 31.7922 1135.82 31.8041 1138.46 31.8041C1141.1 31.8041 1141.43 31.7931 1142.47 31.7462C1143.27 31.7303 1144.07 31.5786 1144.82 31.2976C1145.47 31.0491 1146.06 30.6696 1146.54 30.1832C1147.03 29.6969 1147.41 29.1146 1147.66 28.4733C1147.95 27.7229 1148.1 26.9302 1148.12 26.129C1148.16 25.1003 1148.17 24.7702 1148.17 22.1501C1148.17 19.5299 1148.16 19.1999 1148.12 18.1702C1148.1 17.369 1147.95 16.5764 1147.66 15.8259C1147.42 15.1818 1147.04 14.5984 1146.54 14.1164C1146.06 13.6251 1145.47 13.245 1144.82 13.0026C1144.07 12.7216 1143.27 12.5699 1142.46 12.5539C1141.43 12.508 1141.1 12.4969 1138.46 12.4969Z" fill="#27272A"/>
<path d="M1138.46 17.1923C1137.47 17.1923 1136.51 17.483 1135.69 18.0277C1134.87 18.5724 1134.23 19.3466 1133.85 20.2524C1133.47 21.1582 1133.37 22.1549 1133.56 23.1165C1133.76 24.078 1134.23 24.9613 1134.93 25.6546C1135.63 26.3478 1136.52 26.82 1137.48 27.0112C1138.45 27.2025 1139.46 27.1043 1140.37 26.7292C1141.28 26.354 1142.06 25.7186 1142.61 24.9034C1143.15 24.0882 1143.45 23.1298 1143.45 22.1494C1143.45 20.8347 1142.92 19.5738 1141.98 18.6442C1141.05 17.7145 1139.78 17.1923 1138.46 17.1923ZM1138.46 25.3671C1137.82 25.3671 1137.19 25.1784 1136.66 24.8248C1136.13 24.4712 1135.71 23.9687 1135.47 23.3807C1135.22 22.7928 1135.16 22.1458 1135.28 21.5216C1135.41 20.8975 1135.71 20.3241 1136.17 19.8741C1136.62 19.4241 1137.2 19.1176 1137.83 18.9935C1138.45 18.8693 1139.1 18.9331 1139.7 19.1766C1140.29 19.4201 1140.79 19.8326 1141.15 20.3617C1141.51 20.8909 1141.7 21.513 1141.7 22.1494C1141.7 23.0028 1141.35 23.8212 1140.75 24.4246C1140.14 25.0281 1139.32 25.3671 1138.46 25.3671Z" fill="#27272A"/>
<path d="M1143.64 18.1555C1144.29 18.1555 1144.81 17.6369 1144.81 16.9971C1144.81 16.3574 1144.29 15.8387 1143.64 15.8387C1143 15.8387 1142.48 16.3574 1142.48 16.9971C1142.48 17.6369 1143 18.1555 1143.64 18.1555Z" fill="#27272A"/>
<path fill-rule="evenodd" clip-rule="evenodd" d="M1191.86 12.4969C1186.71 12.4969 1182.56 16.6137 1182.56 21.7307C1182.56 25.809 1185.24 29.2716 1188.91 30.5028C1189.38 30.5797 1189.53 30.3104 1189.53 30.0411C1189.53 29.8103 1189.53 29.2331 1189.53 28.4637C1186.94 29.0408 1186.4 27.2325 1186.4 27.2325C1185.97 26.1552 1185.35 25.8859 1185.35 25.8859C1184.5 25.3088 1185.43 25.3088 1185.43 25.3088C1186.36 25.3857 1186.86 26.2706 1186.86 26.2706C1187.67 27.6942 1189.03 27.271 1189.57 27.0401C1189.65 26.4245 1189.88 26.0398 1190.15 25.809C1188.1 25.5781 1185.93 24.7702 1185.93 21.2306C1185.93 20.2302 1186.28 19.3838 1186.9 18.7682C1186.82 18.5374 1186.47 17.614 1186.98 16.3059C1186.98 16.3059 1187.75 16.075 1189.53 17.2677C1190.27 17.0754 1191.08 16.9599 1191.86 16.9599C1192.63 16.9599 1193.44 17.0754 1194.18 17.2677C1195.96 16.075 1196.73 16.3059 1196.73 16.3059C1197.24 17.5755 1196.93 18.4989 1196.81 18.7682C1197.39 19.4223 1197.78 20.2302 1197.78 21.2306C1197.78 24.7702 1195.61 25.5396 1193.52 25.7705C1193.87 26.0398 1194.14 26.6169 1194.14 27.4633C1194.14 28.6945 1194.14 29.6948 1194.14 30.0026C1194.14 30.2335 1194.3 30.5413 1194.8 30.4643C1198.48 29.2716 1201.15 25.809 1201.15 21.7307C1201.15 16.6137 1197.01 12.4969 1191.86 12.4969Z" fill="#27272A"/>
</svg>
