<svg width="37" height="37" viewBox="0 0 37 37" fill="none" xmlns="http://www.w3.org/2000/svg">
<path d="M18.5 37C8.325 37 0 28.675 0 18.5C0 8.325 8.325 0 18.5 0C28.675 0 37 8.325 37 18.5C37 28.675 28.675 37 18.5 37ZM18.5 1.32143C8.98571 1.32143 1.32143 8.98571 1.32143 18.5C1.32143 28.0143 8.98571 35.6786 18.5 35.6786C28.0143 35.6786 35.6786 28.0143 35.6786 18.5C35.6786 8.98571 28.0143 1.32143 18.5 1.32143Z" fill="#232323"/>
<path d="M18.5 30.3928C17.1786 30.3928 15.9893 30.1285 14.8 29.7321C14.4036 29.6 14.2714 29.2035 14.4036 28.9393C14.5357 28.5428 14.9321 28.4107 15.1964 28.5428C17.575 29.3357 20.0857 29.2035 22.3321 28.4107C22.7286 28.2785 22.9929 28.4107 23.125 28.8071C23.2571 29.2035 23.125 29.4678 22.7286 29.6C21.4071 30.1285 19.9536 30.3928 18.5 30.3928ZM25.1071 28.2785C24.8429 28.2785 24.7107 28.1464 24.5786 28.0143C24.3143 27.75 24.4464 27.3535 24.7107 27.0893C27.4857 25.1071 29.0714 21.8035 29.0714 18.5C29.0714 15.9893 28.1464 13.6107 26.5607 11.6285C26.2964 11.3643 26.2964 10.9678 26.6929 10.7035C26.9571 10.4393 27.3536 10.4393 27.6179 10.8357C29.4679 12.95 30.3929 15.725 30.3929 18.5C30.3929 22.3321 28.5429 25.9 25.5036 28.1464C25.3714 28.1464 25.2393 28.2785 25.1071 28.2785ZM22.3321 8.58926H22.0679C20.35 7.92855 18.5 7.7964 16.65 8.06069C16.2536 8.06069 15.9893 7.92855 15.8571 7.53212C15.8571 7.13569 15.9893 6.8714 16.3857 6.73926C18.5 6.47497 20.6143 6.60712 22.5964 7.26783C22.9929 7.39997 23.125 7.7964 22.9929 8.06069C22.8607 8.45712 22.5964 8.58926 22.3321 8.58926ZM12.5536 28.675C12.4214 28.675 12.2893 28.675 12.1571 28.5428C8.72143 26.4285 6.60714 22.5964 6.60714 18.5C6.60714 15.0643 8.19285 11.7607 10.8357 9.38212C11.1 9.24997 11.4964 9.24997 11.7607 9.51426C12.025 9.77855 12.025 10.175 11.6286 10.4393C9.25 12.4214 7.92857 15.3285 7.92857 18.5C7.92857 22.2 9.77857 25.5035 12.95 27.4857C13.2143 27.6178 13.3464 28.1464 13.2143 28.4107C12.95 28.5428 12.8179 28.675 12.5536 28.675ZM13.875 15.1964C13.4786 15.1964 13.2143 14.9321 13.2143 14.5357V7.26783C13.2143 6.8714 13.4786 6.60712 13.875 6.60712C14.2714 6.60712 14.5357 6.8714 14.5357 7.26783V14.5357C14.5357 14.9321 14.2714 15.1964 13.875 15.1964Z" fill="#232323"/>
<path d="M13.875 30.3928C12.8179 30.3928 11.8929 29.4678 11.8929 28.4107V16.7821L10.7036 15.5928C10.5714 15.4607 10.5714 15.3285 10.5714 15.0643V7.13569C10.5714 6.8714 10.8357 6.60712 11.2321 6.60712C11.6286 6.60712 11.8929 6.8714 11.8929 7.26783V14.9321L13.0821 16.1214C13.2143 16.2535 13.2143 16.3857 13.2143 16.65V28.5428C13.2143 28.9393 13.4786 29.2035 13.875 29.2035C14.2714 29.2035 14.5357 28.9393 14.5357 28.5428V16.65C14.5357 16.5178 14.6679 16.2535 14.6679 16.1214L15.8571 14.9321V7.26783C15.8571 6.8714 16.1214 6.60712 16.5179 6.60712C16.9143 6.60712 17.1786 6.8714 17.1786 7.26783V15.1964C17.1786 15.3285 17.0464 15.5928 17.0464 15.725L15.8571 16.7821V28.4107C15.8571 29.4678 14.9321 30.3928 13.875 30.3928ZM23.7857 30.3928C22.7286 30.3928 21.8036 29.4678 21.8036 28.4107V17.7071C21.8036 17.1785 21.6714 16.7821 21.4071 16.5178C21.275 16.3857 21.1429 16.1214 21.0107 15.9893C20.0857 14.8 19.8214 13.6107 19.9536 12.1571C20.2179 10.5714 20.6143 9.24997 21.4071 8.19283C21.6714 7.7964 22.2 7.39997 22.5964 7.13569C23.3893 6.60712 24.3143 6.60712 25.1071 7.13569C25.5036 7.39997 26.0321 7.7964 26.2964 8.19283C27.0893 9.24997 27.6179 10.5714 27.75 12.1571C27.8821 13.6107 27.6179 14.8 26.6929 15.9893C26.5607 16.1214 26.4286 16.3857 26.2964 16.5178C26.0321 16.9143 25.9 17.3107 25.9 17.7071V28.4107C25.7679 29.4678 24.8429 30.3928 23.7857 30.3928ZM23.7857 7.92855C23.6536 7.92855 23.3893 7.92855 23.2571 8.06069C22.9929 8.32497 22.5964 8.58926 22.4643 8.85355C21.8036 9.77855 21.4071 10.8357 21.275 12.1571C21.1429 13.2143 21.4071 14.1393 22.0679 15.0643C22.2 15.1964 22.3321 15.3285 22.4643 15.5928C22.9929 16.1214 23.2571 16.9143 23.2571 17.7071V28.4107C23.2571 28.8071 23.5214 29.0714 23.9179 29.0714C24.3143 29.0714 24.5786 28.8071 24.5786 28.4107V17.7071C24.5786 16.9143 24.8429 16.1214 25.3714 15.5928C25.5036 15.4607 25.6357 15.3285 25.7679 15.0643C26.4286 14.1393 26.6929 13.2143 26.5607 12.1571C26.4286 10.8357 26.0321 9.6464 25.3714 8.85355L24.5786 8.06069C24.1821 7.92855 23.9179 7.92855 23.7857 7.92855Z" fill="#232323"/>
</svg>
