<svg width="20" height="19" viewBox="0 0 20 19" fill="none" xmlns="http://www.w3.org/2000/svg">
<path fill-rule="evenodd" clip-rule="evenodd" d="M9.85598 0.496948C4.70652 0.496948 0.563721 4.61367 0.563721 9.73071C0.563721 13.809 3.23525 17.2716 6.91343 18.5028C7.37805 18.5797 7.53292 18.3104 7.53292 18.0411C7.53292 17.8103 7.53292 17.2331 7.53292 16.4637C4.93883 17.0408 4.39678 15.2325 4.39678 15.2325C3.97088 14.1552 3.3514 13.8859 3.3514 13.8859C2.49961 13.3088 3.42883 13.3088 3.42883 13.3088C4.35806 13.3857 4.86139 14.2706 4.86139 14.2706C5.67447 15.6942 7.02959 15.271 7.57164 15.0401C7.64907 14.4245 7.88138 14.0398 8.1524 13.809C6.10036 13.5781 3.93217 12.7702 3.93217 9.23055C3.93217 8.23023 4.28063 7.3838 4.90011 6.76821C4.82267 6.53737 4.47421 5.61399 4.97755 4.30588C4.97755 4.30588 5.7519 4.07503 7.53292 5.26773C8.26855 5.07536 9.08163 4.95993 9.85598 4.95993C10.6303 4.95993 11.4434 5.07536 12.179 5.26773C13.9601 4.07503 14.7344 4.30588 14.7344 4.30588C15.2378 5.57552 14.928 6.4989 14.8119 6.76821C15.3926 7.42227 15.7798 8.23023 15.7798 9.23055C15.7798 12.7702 13.6116 13.5396 11.5208 13.7705C11.8693 14.0398 12.1403 14.6169 12.1403 15.4633C12.1403 16.6945 12.1403 17.6948 12.1403 18.0026C12.1403 18.2335 12.2952 18.5413 12.7985 18.4643C16.4767 17.2716 19.1482 13.809 19.1482 9.73071C19.1482 4.61367 15.0054 0.496948 9.85598 0.496948Z" fill="#27272A"/>
</svg>
