<svg width="17" height="14" viewBox="0 0 17 14" fill="none" xmlns="http://www.w3.org/2000/svg">
<path d="M16.8944 1.85103C16.2935 2.11641 15.6593 2.28227 14.9916 2.38179C15.6593 1.98372 16.1934 1.35345 16.4271 0.590482C15.7928 0.955378 15.0918 1.22076 14.324 1.38662C13.7231 0.756344 12.8551 0.358276 11.9204 0.358276C10.1178 0.358276 8.64896 1.81786 8.64896 3.60916C8.64896 3.87454 8.68234 4.10675 8.7491 4.33895C6.04513 4.20626 3.60821 2.91254 1.97247 0.922205C1.70541 1.41979 1.5385 1.95055 1.5385 2.54765C1.5385 3.67551 2.106 4.67067 3.00733 5.26777C2.47321 5.2346 1.97247 5.10191 1.50512 4.86971V4.90288C1.50512 6.49515 2.64012 7.82204 4.14233 8.12059C3.87527 8.18694 3.57483 8.22011 3.27438 8.22011C3.07409 8.22011 2.84041 8.18694 2.64012 8.15376C3.07409 9.44748 4.27586 10.4095 5.7113 10.4095C4.5763 11.272 3.17424 11.8027 1.63865 11.8027C1.37159 11.8027 1.10453 11.8027 0.87085 11.7695C2.33968 12.6984 4.04218 13.2291 5.9116 13.2291C11.9538 13.2291 15.2587 8.25328 15.2587 3.94088C15.2587 3.80819 15.2587 3.64233 15.2587 3.50964C15.8929 3.0784 16.4604 2.51448 16.8944 1.85103Z" fill="#27272A"/>
</svg>
